<svg width="71" height="70" viewBox="0 0 71 70" fill="none" xmlns="http://www.w3.org/2000/svg">
<path d="M64.6666 15.1083L31.3874 48.4166L19.0208 36.0499L23.1333 31.9374L31.3874 40.1916L60.5541 11.0249L64.6666 15.1083ZM58.2208 29.8083C58.5999 31.4708 58.8332 33.2208 58.8332 34.9999C58.8332 47.8916 48.3916 58.3332 35.4999 58.3332C22.6083 58.3332 12.1666 47.8916 12.1666 34.9999C12.1666 22.1083 22.6083 11.6666 35.4999 11.6666C40.1082 11.6666 44.3666 13.0083 47.9833 15.3124L52.1832 11.1124C47.4582 7.78742 41.7124 5.83325 35.4999 5.83325C19.3999 5.83325 6.33325 18.8999 6.33325 34.9999C6.33325 51.0999 19.3999 64.1666 35.4999 64.1666C51.5999 64.1666 64.6666 51.0999 64.6666 34.9999C64.6666 31.5291 64.0249 28.2041 62.9166 25.1124L58.2208 29.8083Z" fill="#C9632B"/>
</svg>
