<svg width="56" height="56" viewBox="0 0 56 56" fill="none" xmlns="http://www.w3.org/2000/svg">
<g clip-path="url(#clip0_957_241517)">
<path d="M0.820312 41.8787C0.367281 41.8787 0 42.2459 0 42.699V55.1797C0 55.6328 0.367281 56 0.820312 56C1.27334 56 1.64062 55.6328 1.64062 55.1797V42.699C1.64062 42.2459 1.27334 41.8787 0.820312 41.8787ZM34.6172 6.61719C26.2378 6.61719 18.97 11.4629 15.4653 18.4986H5.46875V2.73438C5.46875 1.22664 4.24211 0 2.73438 0C1.22664 0 0 1.22664 0 2.73438V39.4178C0 39.8709 0.367281 40.2381 0.820312 40.2381C1.27334 40.2381 1.64062 39.8709 1.64062 39.4178V2.73438C1.64062 2.13128 2.13128 1.64062 2.73438 1.64062C3.33747 1.64062 3.82812 2.13128 3.82812 2.73438V55.1797C3.82812 55.6328 4.19541 56 4.64844 56C5.10147 56 5.46875 55.6328 5.46875 55.1797V37.5014H15.4653C18.97 44.5371 26.2378 49.3828 34.6172 49.3828C46.4077 49.3828 56 39.7905 56 28C56 16.2095 46.4077 6.61719 34.6172 6.61719ZM14.7314 35.8608H5.46875V20.1392H14.7314C13.7657 22.5737 13.2344 25.2259 13.2344 28C13.2344 30.7741 13.7657 33.4263 14.7314 35.8608ZM34.6172 47.7422C23.7313 47.7422 14.875 38.8859 14.875 28C14.875 17.1141 23.7313 8.25781 34.6172 8.25781C45.5031 8.25781 54.3594 17.1141 54.3594 28C54.3594 38.8859 45.5031 47.7422 34.6172 47.7422ZM51.8984 28.8203C52.3515 28.8203 52.7188 28.4531 52.7188 28C52.7188 18.0188 44.5984 9.89844 34.6172 9.89844C24.636 9.89844 16.5156 18.0188 16.5156 28C16.5156 37.9812 24.636 46.1016 34.6172 46.1016C43.2212 46.1016 50.6871 39.9807 52.3696 31.5476C52.4583 31.1032 52.1699 30.6712 51.7256 30.5826C51.2813 30.4945 50.8493 30.7824 50.7607 31.2266C49.2308 38.8951 42.4414 44.4609 34.6172 44.4609C25.5406 44.4609 18.1562 37.0766 18.1562 28C18.1562 18.9234 25.5406 11.5391 34.6172 11.5391C43.6938 11.5391 51.0781 18.9234 51.0781 28C51.0781 28.4531 51.4454 28.8203 51.8984 28.8203ZM28.6103 40.5637H40.6241C41.3829 40.5637 42.0002 39.9453 42.0002 39.1851V26.343L43.1718 27.227C43.4693 27.4516 43.8526 27.5461 44.2188 27.487C44.5869 27.4276 44.9197 27.2173 45.1317 26.9103L47.3872 23.6448C47.739 23.1351 47.7069 22.4479 47.309 21.9737L43.4761 17.4044C43.4054 17.3243 43.3043 17.2301 43.1479 17.1682L39.0992 15.4983C39.0152 15.4708 38.9442 15.4374 38.7865 15.4364H30.4478C30.382 15.4392 30.2607 15.4447 30.1351 15.4983L26.0854 17.1685C25.9793 17.2149 25.8747 17.2697 25.7581 17.4044L21.9254 21.9737C21.5274 22.4479 21.4953 23.1351 21.8472 23.6448L24.1025 26.9103C24.3555 27.2773 24.7856 27.5044 25.2322 27.5044C25.5293 27.5044 25.8231 27.4077 26.0624 27.2272L27.234 26.343V39.1851C27.234 39.9453 27.8515 40.5637 28.6103 40.5637ZM43.2575 19.6965L45.9244 22.8758L43.939 25.7505L42.106 24.3674L43.2575 19.6965ZM25.2955 25.7506L23.31 22.8758L25.9769 19.6965L27.1284 24.3674L25.2955 25.7506ZM37.5978 17.0769C36.9871 17.712 35.7508 18.1108 34.6172 18.1108C33.4836 18.1108 32.2472 17.712 31.6366 17.0769H37.5978ZM29.8793 17.3784C30.5493 18.7704 32.4016 19.7514 34.6172 19.7514C36.8328 19.7514 38.6851 18.7704 39.3551 17.3784L41.8823 18.4207C41.8436 18.593 40.4677 24.2586 40.4111 24.411C40.3438 24.5922 40.3619 24.7822 40.3597 24.9687V38.9231H28.8747V24.9687C28.8705 24.8104 28.8865 24.5962 28.7856 24.2356L27.3521 18.4207L29.8793 17.3784Z" fill="#D18D58"/>
</g>
<defs>
<clipPath id="clip0_957_241517">
<rect width="56" height="56" fill="white"/>
</clipPath>
</defs>
</svg>
