<svg width="76" height="76" viewBox="0 0 76 76" fill="none" xmlns="http://www.w3.org/2000/svg">
<path d="M74.5293 37.9984C74.5293 58.4438 58.1629 74.9968 38 74.9968C17.8371 74.9968 1.47073 58.4438 1.47073 37.9984C1.47073 17.553 17.8371 1 38 1C58.1629 1 74.5293 17.553 74.5293 37.9984Z" fill="#FBF5F0" stroke="#E2B695" stroke-width="2"/>
<mask id="path-2-inside-1_3375_551473" fill="white">
<path d="M33.2037 51.5609C33.0061 51.5609 32.9072 51.4608 32.7095 51.3607L18.2785 39.8518C17.982 39.5515 17.8832 39.1512 18.1797 38.7509C18.4762 38.4507 18.8716 38.3506 19.267 38.6508L33.2037 49.7595L55.7398 24.2396C56.0364 23.9393 56.5306 23.9393 56.8271 24.1395C57.1236 24.4397 57.1236 24.9401 56.926 25.2404L33.7968 51.2607C33.5991 51.4608 33.4014 51.5609 33.2037 51.5609Z"/>
</mask>
<path d="M33.2037 51.5609C33.0061 51.5609 32.9072 51.4608 32.7095 51.3607L18.2785 39.8518C17.982 39.5515 17.8832 39.1512 18.1797 38.7509C18.4762 38.4507 18.8716 38.3506 19.267 38.6508L33.2037 49.7595L55.7398 24.2396C56.0364 23.9393 56.5306 23.9393 56.8271 24.1395C57.1236 24.4397 57.1236 24.9401 56.926 25.2404L33.7968 51.2607C33.5991 51.4608 33.4014 51.5609 33.2037 51.5609Z" fill="#2EB67D"/>
<path d="M32.7095 51.3607L31.4625 52.9244L31.623 53.0524L31.8062 53.1451L32.7095 51.3607ZM18.2785 39.8518L16.8556 41.2572L16.9388 41.3415L17.0315 41.4154L18.2785 39.8518ZM18.1797 38.7509L16.7567 37.3455L16.657 37.4464L16.5726 37.5604L18.1797 38.7509ZM19.267 38.6508L20.5135 37.0869L20.4952 37.0722L20.4765 37.058L19.267 38.6508ZM33.2037 49.7595L31.9571 51.3235L33.4442 52.5087L34.7029 51.0833L33.2037 49.7595ZM55.7398 24.2396L54.3169 22.8342L54.2777 22.8739L54.2407 22.9157L55.7398 24.2396ZM56.8271 24.1395L58.2501 22.7341L58.1106 22.5929L57.9461 22.4818L56.8271 24.1395ZM56.926 25.2404L58.4208 26.5691L58.5168 26.461L58.5964 26.3402L56.926 25.2404ZM33.7968 51.2607L35.2198 52.6661L35.2567 52.6287L35.2916 52.5894L33.7968 51.2607ZM33.2037 49.5609C33.3303 49.5609 33.464 49.5779 33.5969 49.6141C33.7245 49.6489 33.8168 49.6921 33.86 49.714C33.8802 49.7242 33.8919 49.731 33.8888 49.7292C33.8831 49.726 33.8775 49.7227 33.8511 49.7073C33.8079 49.682 33.7201 49.6307 33.6129 49.5764L31.8062 53.1451C31.7978 53.1409 31.7965 53.1395 31.8336 53.1612C31.8541 53.1732 31.9504 53.2306 32.0533 53.2827C32.3245 53.42 32.7097 53.5609 33.2037 53.5609V49.5609ZM33.9566 49.7971L19.5255 38.2881L17.0315 41.4154L31.4625 52.9244L33.9566 49.7971ZM19.7015 38.4464C19.7779 38.5237 19.9439 38.7305 19.9896 39.0777C20.0405 39.4647 19.9091 39.7763 19.7868 39.9414L16.5726 37.5604C16.1537 38.1259 15.9235 38.8378 16.0238 39.6C16.119 40.3225 16.4826 40.8796 16.8556 41.2572L19.7015 38.4464ZM19.6027 40.1563C19.5277 40.2322 19.316 40.4088 18.9538 40.4577C18.5482 40.5125 18.2246 40.3706 18.0574 40.2436L20.4765 37.058C19.914 36.6308 19.195 36.3889 18.4187 36.4937C17.6858 36.5926 17.1282 36.9694 16.7567 37.3455L19.6027 40.1563ZM18.0204 40.2148L31.9571 51.3235L34.4503 48.1955L20.5135 37.0869L18.0204 40.2148ZM34.7029 51.0833L57.239 25.5634L54.2407 22.9157L31.7046 48.4356L34.7029 51.0833ZM57.1628 25.645C56.9116 25.8993 56.6189 25.9847 56.4098 25.9979C56.2165 26.0101 55.9657 25.971 55.7082 25.7972L57.9461 22.4818C56.9567 21.814 55.3748 21.763 54.3169 22.8342L57.1628 25.645ZM55.4041 25.5449C55.1549 25.2926 55.0776 25.0069 55.0657 24.8132C55.0546 24.6337 55.0888 24.3937 55.2555 24.1405L58.5964 26.3402C59.2424 25.3591 59.2969 23.794 58.2501 22.7341L55.4041 25.5449ZM55.4311 23.9116L32.302 49.9319L35.2916 52.5894L58.4208 26.5691L55.4311 23.9116ZM32.3738 49.8553C32.3912 49.8376 32.6747 49.5609 33.2037 49.5609V53.5609C34.1281 53.5609 34.807 53.084 35.2198 52.6661L32.3738 49.8553Z" fill="#BD6F34" mask="url(#path-2-inside-1_3375_551473)"/>
</svg>
