<svg width="60" height="60" viewBox="0 0 60 60" fill="none" xmlns="http://www.w3.org/2000/svg">
<path d="M59.1666 10.1083L25.8874 43.4166L13.5208 31.0499L17.6333 26.9374L25.8874 35.1916L55.0541 6.02492L59.1666 10.1083ZM52.7208 24.8083C53.0999 26.4708 53.3332 28.2208 53.3332 29.9999C53.3332 42.8916 42.8916 53.3332 29.9999 53.3332C17.1083 53.3332 6.66658 42.8916 6.66658 29.9999C6.66658 17.1083 17.1083 6.66658 29.9999 6.66658C34.6082 6.66658 38.8666 8.00825 42.4833 10.3124L46.6832 6.11242C41.9582 2.78742 36.2124 0.833252 29.9999 0.833252C13.8999 0.833252 0.833252 13.8999 0.833252 29.9999C0.833252 46.0999 13.8999 59.1666 29.9999 59.1666C46.0999 59.1666 59.1666 46.0999 59.1666 29.9999C59.1666 26.5291 58.5249 23.2041 57.4166 20.1124L52.7208 24.8083Z" fill="#B5521C"/>
</svg>
