<svg width="60" height="60" viewBox="0 0 60 60" fill="none" xmlns="http://www.w3.org/2000/svg">
<path d="M27.0835 38.7497H32.9168V44.583H27.0835V38.7497ZM27.0835 15.4163H32.9168V32.9163H27.0835V15.4163ZM29.971 0.833008C13.871 0.833008 0.833496 13.8997 0.833496 29.9997C0.833496 46.0997 13.871 59.1663 29.971 59.1663C46.1002 59.1663 59.1668 46.0997 59.1668 29.9997C59.1668 13.8997 46.1002 0.833008 29.971 0.833008ZM30.0002 53.333C17.1085 53.333 6.66683 42.8913 6.66683 29.9997C6.66683 17.108 17.1085 6.66634 30.0002 6.66634C42.8918 6.66634 53.3335 17.108 53.3335 29.9997C53.3335 42.8913 42.8918 53.333 30.0002 53.333Z" fill="#C9632B"/>
</svg>
