<svg width="56" height="56" viewBox="0 0 56 56" fill="none" xmlns="http://www.w3.org/2000/svg">
<path d="M9.40625 10.0986C9.69391 10.0986 9.97609 9.98259 10.1795 9.77805C10.383 9.57473 10.5 9.29254 10.5 9.00488C10.5 8.71723 10.383 8.43504 10.1795 8.2316C9.97609 8.02816 9.69391 7.91113 9.40625 7.91113C9.11859 7.91113 8.83641 8.02805 8.63297 8.2316C8.42953 8.43504 8.3125 8.71723 8.3125 9.00488C8.3125 9.29254 8.42953 9.57473 8.63297 9.77805C8.83641 9.9827 9.11859 10.0986 9.40625 10.0986Z" fill="#D18D58"/>
<path d="M14.2549 10.0986C14.5425 10.0986 14.8247 9.98259 15.0282 9.77805C15.2327 9.57473 15.3486 9.29254 15.3486 9.00488C15.3486 8.71723 15.2327 8.43504 15.0282 8.2316C14.8247 8.02816 14.5425 7.91113 14.2549 7.91113C13.9672 7.91113 13.6861 8.02805 13.4816 8.2316C13.2782 8.43504 13.1611 8.71723 13.1611 9.00488C13.1611 9.29254 13.2782 9.57473 13.4816 9.77805C13.6861 9.9827 13.9683 10.0986 14.2549 10.0986Z" fill="#D18D58"/>
<path d="M19.1045 10.0986C19.3921 10.0986 19.6732 9.98259 19.8778 9.77805C20.0812 9.57473 20.1982 9.29254 20.1982 9.00488C20.1982 8.71723 20.0812 8.43504 19.8778 8.2316C19.6743 8.02816 19.3921 7.91113 19.1045 7.91113C18.8168 7.91113 18.5346 8.02805 18.3301 8.2316C18.1267 8.43504 18.0107 8.71723 18.0107 9.00488C18.0107 9.29254 18.1267 9.57473 18.3301 9.77805C18.5346 9.9827 18.8168 10.0986 19.1045 10.0986Z" fill="#D18D58"/>
<path d="M56 22.6361V19.9062C56 19.7693 55.9743 19.6337 55.9242 19.5063L53.5938 13.5747V7.65625C53.5938 4.64078 51.1405 2.1875 48.125 2.1875H7.875C4.85953 2.1875 2.40625 4.64078 2.40625 7.65625V13.5733L0.0756875 19.5064C0.0257031 19.6338 0 19.7694 0 19.9062V22.6361C0 24.5026 0.932859 26.0828 2.40625 27.0079V51.625H1.09375C0.489672 51.625 0 52.1148 0 52.7188C0 53.3227 0.489672 53.8125 1.09375 53.8125H52.5H54.9062C55.5103 53.8125 56 53.3227 56 52.7188C56 52.1148 55.5103 51.625 54.9062 51.625H53.5938V27.0079C55.0671 26.0828 56 24.5026 56 22.6361ZM50.4219 25.6985C48.4573 25.6985 47.0312 24.4106 47.0312 22.6361V22.636V21H53.8125V22.6361C53.8125 24.4106 52.3865 25.6985 50.4219 25.6985ZM44.8438 22.636C44.8438 24.4106 43.4177 25.6985 41.4531 25.6985C39.4885 25.6985 38.0625 24.4106 38.0625 22.636V21H44.8438V22.636ZM35.875 22.636C35.875 24.4106 34.449 25.6985 32.4844 25.6985C30.5198 25.6985 29.0938 24.4106 29.0938 22.636V21H35.875V22.636ZM26.9062 22.636C26.9062 24.4106 25.4802 25.6985 23.5156 25.6985C21.551 25.6985 20.125 24.4106 20.125 22.636V21H26.9062V22.636ZM17.9375 22.636C17.9375 24.4106 16.5115 25.6985 14.5469 25.6985C12.5823 25.6985 11.1562 24.4106 11.1562 22.636V21H17.9375V22.636ZM4.24517 14.875H51.7543L53.3013 18.8125H2.6985L4.24517 14.875ZM7.875 4.375H48.125C49.9343 4.375 51.4062 5.84697 51.4062 7.65625V12.6875H4.59375V7.65625C4.59375 5.84697 6.06572 4.375 7.875 4.375ZM2.1875 21H8.96875V22.636V22.6361C8.96875 24.4106 7.54272 25.6985 5.57812 25.6985C3.61353 25.6985 2.1875 24.4106 2.1875 22.6361V21ZM9.84375 51.625V33.136H21.6562V51.625H9.84375ZM51.4062 51.625H23.8438V32.0423C23.8438 31.4383 23.3541 30.9485 22.75 30.9485H8.75C8.14592 30.9485 7.65625 31.4383 7.65625 32.0423V51.625H4.59375V27.81C4.91203 27.8591 5.24027 27.886 5.57812 27.886C7.4573 27.886 9.06292 27.0977 10.0625 25.8352C11.0621 27.0977 12.6677 27.886 14.5469 27.886C16.426 27.886 18.0317 27.0977 19.0312 25.8352C20.0308 27.0977 21.6365 27.886 23.5156 27.886C25.3948 27.886 27.0004 27.0977 28 25.8352C28.9996 27.0977 30.6052 27.886 32.4844 27.886C34.3635 27.886 35.9692 27.0977 36.9688 25.8352C37.9683 27.0977 39.574 27.886 41.4531 27.886C43.3322 27.886 44.9379 27.0977 45.9375 25.8352C46.9371 27.0977 48.5427 27.886 50.4219 27.886C50.7597 27.886 51.088 27.8591 51.4062 27.81V51.625Z" fill="#D18D58"/>
<path d="M13.125 42.0522C12.8373 42.0522 12.5552 42.1693 12.3517 42.3728C12.1483 42.5762 12.0312 42.8583 12.0312 43.146C12.0312 43.4337 12.1483 43.7158 12.3517 43.9193C12.5552 44.1227 12.8373 44.2397 13.125 44.2397C13.4127 44.2397 13.6948 44.1228 13.8983 43.9193C14.1017 43.7157 14.2188 43.4337 14.2188 43.146C14.2188 42.8583 14.1017 42.5762 13.8983 42.3728C13.6948 42.1694 13.4127 42.0522 13.125 42.0522Z" fill="#D18D58"/>
<path d="M47.25 30.9487H42.6632C42.0592 30.9487 41.5695 31.4385 41.5695 32.0425C41.5695 32.6464 42.0592 33.1362 42.6632 33.1362H46.1562V44.6252H29.0938V33.1362H32.8194C33.4235 33.1362 33.9131 32.6464 33.9131 32.0425C33.9131 31.4385 33.4235 30.9487 32.8194 30.9487H28C27.3959 30.9487 26.9062 31.4385 26.9062 32.0425V45.7189C26.9062 46.3229 27.3959 46.8127 28 46.8127H47.25C47.8541 46.8127 48.3438 46.3229 48.3438 45.7189V32.0425C48.3438 31.4385 47.8541 30.9487 47.25 30.9487Z" fill="#D18D58"/>
<path d="M37.741 33.1362C38.0297 33.1362 38.3108 33.0192 38.5142 32.8157C38.7188 32.6123 38.8347 32.3301 38.8347 32.0425C38.8347 31.7536 38.7188 31.4726 38.5142 31.2692C38.3108 31.0647 38.0297 30.9487 37.741 30.9487C37.4533 30.9487 37.1711 31.0647 36.9677 31.2692C36.7642 31.4726 36.6472 31.7537 36.6472 32.0425C36.6472 32.3301 36.7642 32.6123 36.9677 32.8157C37.1711 33.0192 37.4533 33.1362 37.741 33.1362Z" fill="#D18D58"/>
</svg>
