<svg width="14" height="14" viewBox="0 0 14 14" fill="none" xmlns="http://www.w3.org/2000/svg">
<path d="M2.60741 11.9601H11.3924C12.2907 11.9601 12.8507 10.9859 12.4016 10.2101L8.00907 2.62094C7.55991 1.8451 6.43991 1.8451 5.99074 2.62094L1.59824 10.2101C1.14907 10.9859 1.70907 11.9601 2.60741 11.9601ZM6.99991 7.87677C6.67907 7.87677 6.41657 7.61427 6.41657 7.29344V6.12677C6.41657 5.80594 6.67907 5.54344 6.99991 5.54344C7.32074 5.54344 7.58324 5.80594 7.58324 6.12677V7.29344C7.58324 7.61427 7.32074 7.87677 6.99991 7.87677ZM7.58324 10.2101H6.41657V9.04344H7.58324V10.2101Z" fill="#DA7F33"/>
</svg>
